<mxfile host="drawio-plugin" modified="2024-02-13T14:54:37.143Z" agent="5.0 (Windows NT 10.0; Win64; x64) AppleWebKit/537.36 (KHTML, like Gecko) Chrome/111.0.0.0 Safari/537.36" version="20.5.3" etag="f03WBgG8pgtkXyKOUAby" type="embed"><diagram id="MhYOhftzon7wNMCiwkV9" name="Page-1"><mxGraphModel dx="828" dy="414" grid="1" gridSize="10" guides="1" tooltips="1" connect="1" arrows="1" fold="1" page="1" pageScale="1" pageWidth="850" pageHeight="1100" math="0" shadow="0"><root><mxCell id="0"/><mxCell id="1" parent="0"/><mxCell id="2" value="api gateway" style="rounded=0;whiteSpace=wrap;html=1;fillColor=#60a917;fontColor=#ffffff;strokeColor=#2D7600;" parent="1" vertex="1"><mxGeometry x="220" y="170" width="410" height="60" as="geometry"/></mxCell><mxCell id="3" value="orchestration" style="rounded=1;whiteSpace=wrap;html=1;fillColor=#60a917;fontColor=#ffffff;strokeColor=#2D7600;" parent="1" vertex="1"><mxGeometry x="220" y="310" width="410" height="60" as="geometry"/></mxCell><mxCell id="4" value="workflow" style="rounded=1;whiteSpace=wrap;html=1;fillColor=#60a917;fontColor=#ffffff;strokeColor=#2D7600;" parent="1" vertex="1"><mxGeometry x="90" y="410" width="220" height="60" as="geometry"/></mxCell><mxCell id="5" value="company" style="rounded=1;whiteSpace=wrap;html=1;fillColor=#60a917;fontColor=#ffffff;strokeColor=#2D7600;" parent="1" vertex="1"><mxGeometry x="130" y="550" width="150" height="60" as="geometry"/></mxCell><mxCell id="6" value="receivable" style="rounded=1;whiteSpace=wrap;html=1;fillColor=#60a917;fontColor=#ffffff;strokeColor=#2D7600;" parent="1" vertex="1"><mxGeometry x="350" y="550" width="150" height="60" as="geometry"/></mxCell><mxCell id="8" value="finance" style="rounded=1;whiteSpace=wrap;html=1;fillColor=#60a917;fontColor=#ffffff;strokeColor=#2D7600;" parent="1" vertex="1"><mxGeometry x="560" y="550" width="150" height="60" as="geometry"/></mxCell><mxCell id="9" value="" style="endArrow=none;dashed=1;html=1;" parent="1" edge="1"><mxGeometry width="50" height="50" relative="1" as="geometry"><mxPoint x="760" y="690" as="sourcePoint"/><mxPoint x="760" y="210" as="targetPoint"/></mxGeometry></mxCell><mxCell id="10" value="" style="endArrow=none;dashed=1;html=1;" parent="1" edge="1"><mxGeometry width="50" height="50" relative="1" as="geometry"><mxPoint x="50" y="210" as="sourcePoint"/><mxPoint x="760" y="210" as="targetPoint"/></mxGeometry></mxCell><mxCell id="11" value="" style="endArrow=none;dashed=1;html=1;" parent="1" edge="1"><mxGeometry width="50" height="50" relative="1" as="geometry"><mxPoint x="50" y="690" as="sourcePoint"/><mxPoint x="50" y="210" as="targetPoint"/><Array as="points"><mxPoint x="50" y="400"/></Array></mxGeometry></mxCell><mxCell id="12" value="" style="endArrow=none;dashed=1;html=1;" parent="1" edge="1"><mxGeometry width="50" height="50" relative="1" as="geometry"><mxPoint x="765" y="690" as="sourcePoint"/><mxPoint x="55" y="690" as="targetPoint"/></mxGeometry></mxCell><mxCell id="13" value="" style="shape=flexArrow;endArrow=classic;startArrow=classic;html=1;entryX=0.7;entryY=1;entryDx=0;entryDy=0;entryPerimeter=0;exitX=0.7;exitY=0.017;exitDx=0;exitDy=0;exitPerimeter=0;width=6;endSize=4;" parent="1" source="3" target="2" edge="1"><mxGeometry width="100" height="100" relative="1" as="geometry"><mxPoint x="507" y="270" as="sourcePoint"/><mxPoint x="610" y="350" as="targetPoint"/></mxGeometry></mxCell><mxCell id="14" value="query rest" style="text;html=1;strokeColor=none;fillColor=none;align=center;verticalAlign=middle;whiteSpace=wrap;rounded=0;" parent="1" vertex="1"><mxGeometry x="510" y="250" width="60" height="30" as="geometry"/></mxCell><mxCell id="15" value="" style="shape=flexArrow;endArrow=classic;html=1;exitX=0.439;exitY=1.05;exitDx=0;exitDy=0;exitPerimeter=0;entryX=0.441;entryY=-0.067;entryDx=0;entryDy=0;entryPerimeter=0;" parent="1" source="2" target="3" edge="1"><mxGeometry width="50" height="50" relative="1" as="geometry"><mxPoint x="350" y="300" as="sourcePoint"/><mxPoint x="400" y="250" as="targetPoint"/></mxGeometry></mxCell><mxCell id="16" value="" style="shape=flexArrow;endArrow=classic;html=1;entryX=0.195;entryY=0.95;entryDx=0;entryDy=0;entryPerimeter=0;exitX=0.195;exitY=0;exitDx=0;exitDy=0;exitPerimeter=0;" parent="1" source="3" target="2" edge="1"><mxGeometry width="50" height="50" relative="1" as="geometry"><mxPoint x="300" y="290" as="sourcePoint"/><mxPoint x="350" y="240" as="targetPoint"/><Array as="points"/></mxGeometry></mxCell><mxCell id="17" value="command&lt;br&gt;kafka" style="text;html=1;strokeColor=none;fillColor=none;align=center;verticalAlign=middle;whiteSpace=wrap;rounded=0;" parent="1" vertex="1"><mxGeometry x="310" y="240" width="80" height="60" as="geometry"/></mxCell><mxCell id="18" value="" style="shape=flexArrow;endArrow=classic;startArrow=classic;html=1;" parent="1" edge="1"><mxGeometry width="100" height="100" relative="1" as="geometry"><mxPoint x="410" y="170" as="sourcePoint"/><mxPoint x="410" y="90" as="targetPoint"/></mxGeometry></mxCell><mxCell id="19" value="rest" style="text;html=1;strokeColor=none;fillColor=none;align=center;verticalAlign=middle;whiteSpace=wrap;rounded=0;" parent="1" vertex="1"><mxGeometry x="380" y="60" width="60" height="30" as="geometry"/></mxCell><mxCell id="20" value="" style="shape=cylinder3;whiteSpace=wrap;html=1;boundedLbl=1;backgroundOutline=1;size=15;fillColor=#e51400;fontColor=#ffffff;strokeColor=#B20000;" parent="1" vertex="1"><mxGeometry x="160" y="480" width="50" height="40" as="geometry"/></mxCell><mxCell id="21" value="" style="shape=cylinder3;whiteSpace=wrap;html=1;boundedLbl=1;backgroundOutline=1;size=15;fillColor=#e51400;fontColor=#ffffff;strokeColor=#B20000;" parent="1" vertex="1"><mxGeometry x="620" y="640" width="50" height="40" as="geometry"/></mxCell><mxCell id="22" value="" style="shape=cylinder3;whiteSpace=wrap;html=1;boundedLbl=1;backgroundOutline=1;size=15;fillColor=#e51400;fontColor=#ffffff;strokeColor=#B20000;" parent="1" vertex="1"><mxGeometry x="410" y="640" width="50" height="40" as="geometry"/></mxCell><mxCell id="23" value="" style="shape=cylinder3;whiteSpace=wrap;html=1;boundedLbl=1;backgroundOutline=1;size=15;fillColor=#e51400;fontColor=#ffffff;strokeColor=#B20000;" parent="1" vertex="1"><mxGeometry x="175" y="640" width="50" height="40" as="geometry"/></mxCell><mxCell id="31" value="" style="endArrow=classic;startArrow=classic;html=1;entryX=0.455;entryY=1.017;entryDx=0;entryDy=0;entryPerimeter=0;" parent="1" target="4" edge="1"><mxGeometry width="50" height="50" relative="1" as="geometry"><mxPoint x="190" y="500" as="sourcePoint"/><mxPoint x="200" y="470" as="targetPoint"/></mxGeometry></mxCell><mxCell id="32" value="" style="endArrow=classic;startArrow=classic;html=1;entryX=0.5;entryY=1;entryDx=0;entryDy=0;" parent="1" target="5" edge="1"><mxGeometry width="50" height="50" relative="1" as="geometry"><mxPoint x="205" y="650" as="sourcePoint"/><mxPoint x="250" y="610" as="targetPoint"/></mxGeometry></mxCell><mxCell id="33" value="" style="endArrow=classic;startArrow=classic;html=1;entryX=0.547;entryY=0.05;entryDx=0;entryDy=0;entryPerimeter=0;exitX=0.52;exitY=1.05;exitDx=0;exitDy=0;exitPerimeter=0;" parent="1" source="3" target="6" edge="1"><mxGeometry width="50" height="50" relative="1" as="geometry"><mxPoint x="530" y="320" as="sourcePoint"/><mxPoint x="520" y="400" as="targetPoint"/><Array as="points"><mxPoint x="432" y="460"/></Array></mxGeometry></mxCell><mxCell id="34" value="" style="endArrow=classic;startArrow=classic;html=1;entryX=0.454;entryY=1.067;entryDx=0;entryDy=0;entryPerimeter=0;" parent="1" target="3" edge="1"><mxGeometry width="50" height="50" relative="1" as="geometry"><mxPoint x="270" y="560" as="sourcePoint"/><mxPoint x="320" y="510" as="targetPoint"/></mxGeometry></mxCell><mxCell id="35" value="" style="endArrow=classic;startArrow=classic;html=1;entryX=0.42;entryY=-0.033;entryDx=0;entryDy=0;entryPerimeter=0;exitX=0.788;exitY=1.017;exitDx=0;exitDy=0;exitPerimeter=0;" parent="1" source="3" target="8" edge="1"><mxGeometry width="50" height="50" relative="1" as="geometry"><mxPoint x="530" y="320" as="sourcePoint"/><mxPoint x="580" y="270" as="targetPoint"/></mxGeometry></mxCell><mxCell id="36" value="" style="endArrow=classic;html=1;exitX=0.618;exitY=1.083;exitDx=0;exitDy=0;exitPerimeter=0;entryX=0.64;entryY=-0.05;entryDx=0;entryDy=0;entryPerimeter=0;" parent="1" source="4" target="5" edge="1"><mxGeometry width="50" height="50" relative="1" as="geometry"><mxPoint x="530" y="620" as="sourcePoint"/><mxPoint x="580" y="570" as="targetPoint"/></mxGeometry></mxCell><mxCell id="37" value="" style="endArrow=classic;html=1;exitX=0.75;exitY=0;exitDx=0;exitDy=0;entryX=0.691;entryY=1.05;entryDx=0;entryDy=0;entryPerimeter=0;" parent="1" source="5" target="4" edge="1"><mxGeometry width="50" height="50" relative="1" as="geometry"><mxPoint x="530" y="620" as="sourcePoint"/><mxPoint x="580" y="570" as="targetPoint"/></mxGeometry></mxCell><mxCell id="38" value="" style="endArrow=classic;html=1;exitX=0.782;exitY=1.067;exitDx=0;exitDy=0;exitPerimeter=0;entryX=0.16;entryY=-0.067;entryDx=0;entryDy=0;entryPerimeter=0;" parent="1" source="4" target="6" edge="1"><mxGeometry width="50" height="50" relative="1" as="geometry"><mxPoint x="530" y="620" as="sourcePoint"/><mxPoint x="580" y="570" as="targetPoint"/></mxGeometry></mxCell><mxCell id="39" value="" style="endArrow=classic;html=1;exitX=0.333;exitY=0;exitDx=0;exitDy=0;exitPerimeter=0;entryX=0.9;entryY=1.083;entryDx=0;entryDy=0;entryPerimeter=0;" parent="1" source="6" target="4" edge="1"><mxGeometry width="50" height="50" relative="1" as="geometry"><mxPoint x="530" y="620" as="sourcePoint"/><mxPoint x="580" y="570" as="targetPoint"/></mxGeometry></mxCell><mxCell id="40" value="" style="endArrow=classic;html=1;exitX=1.005;exitY=0.617;exitDx=0;exitDy=0;exitPerimeter=0;entryX=0.25;entryY=0;entryDx=0;entryDy=0;" parent="1" source="4" target="8" edge="1"><mxGeometry width="50" height="50" relative="1" as="geometry"><mxPoint x="530" y="620" as="sourcePoint"/><mxPoint x="580" y="570" as="targetPoint"/></mxGeometry></mxCell><mxCell id="41" value="" style="endArrow=classic;html=1;exitX=0.387;exitY=0.017;exitDx=0;exitDy=0;exitPerimeter=0;entryX=0.995;entryY=0.367;entryDx=0;entryDy=0;entryPerimeter=0;" parent="1" source="8" target="4" edge="1"><mxGeometry width="50" height="50" relative="1" as="geometry"><mxPoint x="530" y="620" as="sourcePoint"/><mxPoint x="580" y="570" as="targetPoint"/></mxGeometry></mxCell><mxCell id="42" value="" style="endArrow=classic;startArrow=classic;html=1;entryX=0.25;entryY=1;entryDx=0;entryDy=0;exitX=0.75;exitY=0;exitDx=0;exitDy=0;" parent="1" source="4" target="3" edge="1"><mxGeometry width="50" height="50" relative="1" as="geometry"><mxPoint x="530" y="620" as="sourcePoint"/><mxPoint x="580" y="570" as="targetPoint"/></mxGeometry></mxCell><mxCell id="43" value="" style="endArrow=classic;startArrow=classic;html=1;entryX=0.6;entryY=1.017;entryDx=0;entryDy=0;entryPerimeter=0;" parent="1" source="22" target="6" edge="1"><mxGeometry width="50" height="50" relative="1" as="geometry"><mxPoint x="530" y="620" as="sourcePoint"/><mxPoint x="580" y="570" as="targetPoint"/></mxGeometry></mxCell><mxCell id="44" value="" style="endArrow=classic;startArrow=classic;html=1;exitX=0.5;exitY=0;exitDx=0;exitDy=0;exitPerimeter=0;entryX=0.553;entryY=1.017;entryDx=0;entryDy=0;entryPerimeter=0;" parent="1" source="21" target="8" edge="1"><mxGeometry width="50" height="50" relative="1" as="geometry"><mxPoint x="530" y="620" as="sourcePoint"/><mxPoint x="580" y="570" as="targetPoint"/></mxGeometry></mxCell><mxCell id="45" value="kafka/rest" style="text;html=1;strokeColor=none;fillColor=none;align=center;verticalAlign=middle;whiteSpace=wrap;rounded=0;" parent="1" vertex="1"><mxGeometry x="660" y="400" width="60" height="30" as="geometry"/></mxCell><mxCell id="46" value="Actor" style="shape=umlActor;verticalLabelPosition=bottom;verticalAlign=top;html=1;outlineConnect=0;" vertex="1" parent="1"><mxGeometry x="395" width="30" height="40" as="geometry"/></mxCell></root></mxGraphModel></diagram></mxfile>